<svg width="763" height="157" viewBox="0 0 763 157" fill="none" xmlns="http://www.w3.org/2000/svg">
<path d="M274.994 60.176L224.178 59.92C221.874 59.92 219.698 59.1093 217.65 57.488C215.26 55.6107 214.066 53.2213 214.066 50.32L214.194 28.432H260.914C260.914 19.984 255.239 15.76 243.89 15.76C239.026 15.76 231.687 16.528 221.874 18.064L217.778 8.592C227.335 5.94666 235.996 4.624 243.762 4.624C253.575 4.624 261.212 6.71466 266.674 10.896C272.22 14.992 274.994 20.8373 274.994 28.432V60.176ZM261.042 49.296V37.776H228.146V49.296H261.042ZM344.116 26.64C344.201 29.1147 343.348 31.248 341.556 33.04C341.726 34.6613 341.812 36.1973 341.812 37.648C341.812 54.544 332.425 62.992 313.652 62.992C305.374 62.992 295.22 61.328 283.188 58V6.928H343.988L344.116 26.64ZM330.164 25.616V16.272H297.14V25.616H330.164ZM326.836 36.24H297.14V51.472C302.174 52.0693 306.398 52.368 309.812 52.368C321.417 52.368 327.22 48.3147 327.22 40.208C327.22 39.0133 327.092 37.6907 326.836 36.24ZM410.44 48.528C410.44 51.5147 409.245 53.904 406.856 55.696C404.808 57.3173 402.632 58.128 400.328 58.128H362.056C359.752 58.128 357.576 57.3173 355.528 55.696C353.138 53.904 351.944 51.5147 351.944 48.528L352.072 6.416H374.856V1.808L387.528 0.527996L387.4 6.416H410.312L410.44 48.528ZM396.36 48.784V15.76H365.896V48.784H396.36ZM486.315 6.928L486.187 52.624C475.861 59.28 466.347 62.608 457.643 62.608C447.147 62.608 437.12 59.536 427.562 53.392V14.352C425.6 14.096 423.637 13.84 421.674 13.584C419.712 12.816 418.73 11.1947 418.73 8.72V6.416L441.643 6.288L441.515 46.736C443.648 47.8453 445.739 48.912 447.787 49.936C451.2 51.472 454.443 52.24 457.515 52.24C462.464 52.24 467.413 50.3627 472.363 46.608V6.928H486.315ZM554.994 0.527996V16.144H530.418V58H516.338V16.272H494.578L494.066 6.928H542.322V1.808L554.994 0.527996ZM56.061 90.528V106.144L14.205 106.272V138.656H56.061L53.245 148H10.365C8.061 148 5.885 147.189 3.837 145.568C1.44767 143.776 0.253 141.387 0.253 138.4V96.928H43.389V91.808L56.061 90.528ZM134.223 148H121.039V126.752C117.114 127.776 112.42 128.288 106.959 128.288C101.327 128.288 94.543 127.776 86.607 126.752V147.488L72.655 148.768V104.352C70.6923 104.096 68.7297 103.84 66.767 103.584C64.8043 102.816 63.823 101.195 63.823 98.72V96.416H86.735L86.607 115.232C96.6763 116.427 108.154 117.195 121.039 117.536V96.416H133.583L134.223 148ZM154.952 96.544L154.824 148H141V96.544H154.952ZM237.679 155.68C234.607 156.277 231.876 156.576 229.487 156.576C222.831 156.576 216.431 153.888 210.287 148.512C203.375 142.453 195.055 131.616 185.327 116V147.488L171.375 148.768V104.352C169.412 104.096 167.45 103.84 165.487 103.584C163.524 102.816 162.543 101.195 162.543 98.72V96.416H186.863C196.335 113.653 207.258 129.525 219.631 144.032V96.416H232.175V148.512C233.37 148.768 234.095 148.853 234.351 148.768C235.716 148.341 236.612 148.085 237.039 148L237.679 155.68ZM301.085 116.512C301.085 119.499 299.89 121.931 297.501 123.808C295.453 125.344 293.277 126.112 290.973 126.112H258.205V138.656H300.061L297.245 148H254.365C252.061 148 249.885 147.189 247.837 145.568C245.448 143.776 244.253 141.387 244.253 138.4V96.928H287.389V91.808L300.061 90.528V106.144L258.205 106.272V115.488H301.085V116.512ZM364.844 115.488C364.929 117.451 364.972 119.371 364.972 121.248C364.972 142.923 354.945 153.76 334.892 153.76C327.553 153.76 318.679 152.352 308.268 149.536L312.236 140.064C321.793 141.6 328.791 142.368 333.228 142.368C339.201 142.368 343.596 141.216 346.412 138.912C349.569 136.352 351.148 132.085 351.148 126.112L318.508 125.984C316.119 125.984 313.815 125.259 311.596 123.808C308.951 122.016 307.628 119.669 307.628 116.768V96.928H350.764V91.808L363.436 90.528V106.144L321.58 106.272V115.488H364.844ZM429.085 116.512C429.085 119.499 427.89 121.931 425.501 123.808C423.453 125.344 421.277 126.112 418.973 126.112H386.205V138.656H428.061L425.245 148H382.365C380.061 148 377.885 147.189 375.837 145.568C373.448 143.776 372.253 141.387 372.253 138.4V96.928H415.389V91.808L428.061 90.528V106.144L386.205 106.272V115.488H429.085V116.512ZM529.219 115.488C529.304 117.451 529.347 119.371 529.347 121.248C529.347 142.923 519.32 153.76 499.267 153.76C491.928 153.76 483.054 152.352 472.643 149.536L476.611 140.064C486.168 141.6 493.166 142.368 497.603 142.368C503.576 142.368 507.971 141.216 510.787 138.912C513.944 136.352 515.523 132.085 515.523 126.112L482.883 125.984C480.494 125.984 478.19 125.259 475.971 123.808C473.326 122.016 472.003 119.669 472.003 116.768V96.928H515.139V91.808L527.811 90.528V106.144L485.955 106.272V115.488H529.219ZM607.223 148H594.039V126.752C590.114 127.776 585.42 128.288 579.959 128.288C574.327 128.288 567.543 127.776 559.607 126.752V147.488L545.655 148.768V104.352C543.692 104.096 541.73 103.84 539.767 103.584C537.804 102.816 536.823 101.195 536.823 98.72V96.416H559.735L559.607 115.232C569.676 116.427 581.154 117.195 594.039 117.536V96.416H606.583L607.223 148ZM627.952 96.544L627.824 148H614V96.544H627.952ZM697.053 116.64C697.138 119.115 696.285 121.248 694.493 123.04C694.664 124.661 694.749 126.197 694.749 127.648C694.749 144.544 685.362 152.992 666.589 152.992C658.312 152.992 648.157 151.328 636.125 148V96.928H696.925L697.053 116.64ZM683.101 115.616V106.272H650.077V115.616H683.101ZM679.773 126.24H650.077V141.472C655.112 142.069 659.336 142.368 662.749 142.368C674.354 142.368 680.157 138.315 680.157 130.208C680.157 129.013 680.029 127.691 679.773 126.24ZM762.931 150.176L712.115 149.92C709.811 149.92 707.635 149.109 705.587 147.488C703.198 145.611 702.003 143.221 702.003 140.32L702.131 118.432H748.851C748.851 109.984 743.176 105.76 731.827 105.76C726.963 105.76 719.624 106.528 709.811 108.064L705.715 98.592C715.272 95.9467 723.934 94.624 731.699 94.624C741.512 94.624 749.15 96.7147 754.611 100.896C760.158 104.992 762.931 110.837 762.931 118.432V150.176ZM748.979 139.296V127.776H716.083V139.296H748.979Z" fill="black"/>
</svg>
