<svg width="1920" height="1080" viewBox="0 0 1920 1080" fill="none" xmlns="http://www.w3.org/2000/svg">
<g clip-path="url(#clip0_14_536)">
<path d="M161.746 1250.62C240.921 1252.87 323.995 1225.83 374.732 1164.24C419.58 1109.77 445.244 887.998 325.217 950.442C311.106 957.784 297.13 966.722 288.427 980.182C279.719 993.645 277.571 1012.62 286.999 1025.59C295.498 1037.28 312.669 1041.4 325.335 1034.77C338.029 1028.19 344.691 1011.64 340.242 997.836C334.356 997.437 328.469 997.037 322.583 996.638C335.261 987.271 355.48 997.072 359.55 1012.48C363.623 1027.89 354.34 1044.63 340.824 1052.71C327.308 1060.79 310.677 1061.68 295.092 1059.66C287.572 1058.7 279.839 1056.95 273.669 1052.42C267.016 1047.53 262.848 1039.85 260.113 1032C241.849 979.842 271.345 931.754 313.909 903.394C368.666 866.817 401.169 915.762 457.755 924.43C493.546 929.915 528.118 911.424 559.68 893.575C568.489 888.56 577.453 883.484 584.52 876.152C605.391 854.701 605.231 820.638 603.208 790.501C601.49 764.754 596.841 734.804 574.52 722.301C541.979 704.102 499.295 738.225 465.623 722.256C451.768 715.668 442.566 701.555 437.893 686.778C429.669 660.733 434.536 629.893 453.212 610.253C471.888 590.613 504.568 585.083 526.932 600.485C538.756 608.612 547.273 623.153 544.829 637.455C542.351 651.717 526.271 663.005 513.136 657.256C499.998 651.51 499.39 627.918 513.077 623.86C494.576 617.761 477.747 642.84 484.373 661.397C491 679.955 511.212 689.83 530.351 693.151C634.687 711.291 698.038 635.271 685.014 536.743C680.577 503.07 670.721 467.793 645.535 445.3C600.563 405.14 488.372 403.854 440.126 436.356C409.85 456.763 388.795 490.719 383.742 527.308C380.229 502.359 357.982 483.175 333.876 477.059C309.774 470.94 284.345 475.675 260.634 483.021C243.693 488.261 227.005 494.999 212.64 505.485C184.509 525.965 167.281 560.996 168.022 596.218C168.54 621.522 178.276 644.067 193.112 663.974C195.379 667.018 223.878 702.748 223.729 702.667C144.868 666.648 80.3499 624.8 -5.57051 673.097C-72.426 710.714 -120.434 788.545 -114.374 867.429C-109.902 925.44 -71.7582 981.744 -16.9628 998.919C18.1783 1009.92 90.9162 1013.73 122.151 987.753C181.036 938.624 102.433 830.453 65.4101 899.425C58.7737 911.862 64.6992 931.134 78.5086 933.05C57.2586 939.048 31.3959 943.937 15.6138 928.155C2.22538 914.766 3.5002 891.055 14.6199 875.737C25.7356 860.424 44.1469 852.264 62.4673 848.206C82.445 843.804 103.933 843.548 122.655 851.991C183.665 879.463 183.001 993.243 147.751 1039.87C124.703 1070.35 86.3847 1082.99 49.5217 1086.99C-20.7983 1094.63 -99.5055 1080.74 -156.085 1123.67C-190.486 1149.73 -209.549 1195.21 -204.342 1238.56C-199.587 1213.68 -175.845 1196.28 -151.386 1191.32C-78.518 1176.59 -30.9562 1206.42 35.7819 1227.53C76.6423 1240.43 118.876 1249.41 161.746 1250.62Z" fill="#931B29"/>
<path d="M1361.12 590.777C1347.87 657.961 1359.05 732.658 1404.3 784.726C1444.33 830.756 1629.74 884.361 1593.67 773.093C1589.43 760.011 1583.8 746.817 1573.57 737.471C1563.34 728.121 1547.47 723.576 1535.06 729.758C1523.88 735.333 1517.91 749.383 1521.75 761.13C1525.54 772.895 1538.71 780.942 1551.11 779.123C1552.29 774.162 1553.47 769.2 1554.66 764.239C1560.83 776.388 1549.58 792.225 1535.86 793.49C1522.14 794.759 1509.2 784.45 1504.24 771.77C1499.29 759.091 1500.91 744.784 1504.86 731.785C1506.75 725.512 1509.35 719.167 1514.09 714.555C1519.21 709.582 1526.36 707.127 1533.44 705.918C1580.53 697.807 1617.31 729.835 1635.4 770.182C1658.75 822.1 1612.37 842.811 1596.89 889.816C1587.09 919.547 1597.91 951.669 1608.61 981.132C1611.63 989.36 1614.67 997.729 1619.91 1004.8C1635.22 1025.67 1664.28 1030.4 1690.27 1032.99C1712.47 1035.21 1738.67 1035.53 1752.52 1018.28C1772.69 993.143 1749.7 951.87 1768.14 925.445C1775.73 914.575 1789.08 908.748 1802.35 906.877C1825.73 903.591 1851.33 912.152 1865.4 930.884C1879.48 949.617 1879.52 978.271 1863.19 995.136C1854.57 1004.05 1840.95 1009.24 1829.11 1005.11C1817.3 1000.95 1809.98 985.629 1816.76 975.253C1823.54 964.873 1843.74 967.729 1845.24 979.98C1853.09 965.078 1834.11 947.142 1817.34 950.137C1800.57 953.133 1789.26 968.953 1783.69 984.795C1753.3 1071.16 1809.05 1136.05 1894.92 1139.04C1924.27 1140.07 1955.75 1136.71 1978.53 1118.46C2019.21 1085.86 2036.35 990.387 2015.54 944.603C2002.47 915.87 1976.53 893.062 1946.06 883.519C1967.84 884.093 1987.37 867.869 1996.04 848.191C2004.7 828.517 2004.3 806.159 2001.43 784.892C1999.39 769.698 1996.03 754.506 1989.14 740.759C1975.71 713.844 1948.3 694.145 1918.17 689.738C1896.52 686.56 1875.9 691.636 1856.81 701.437C1853.89 702.935 1819.35 722.122 1819.44 722.007C1861.43 659.922 1906.34 610.9 1877.45 530.735C1854.94 468.353 1795.45 416.287 1727.33 410.17C1677.23 405.685 1623.76 430.152 1601.28 474.414C1586.87 502.802 1573.23 564.274 1590.9 594.62C1624.37 651.854 1727.84 600.31 1674.33 558.878C1664.67 551.441 1647.39 553.736 1643.79 565.236C1641.71 546.26 1641.24 523.51 1656.96 512.312C1670.29 502.812 1690.32 507.291 1701.79 518.962C1713.26 530.63 1717.58 547.495 1718.42 563.696C1719.31 581.358 1716.46 599.716 1706.58 614.47C1674.43 662.558 1577.52 645.716 1542.81 608.992C1520.12 584.981 1514.82 550.503 1516.68 518.501C1520.22 457.452 1543.33 392.334 1514.82 337.953C1497.52 304.895 1461.47 282.135 1423.77 280.375C1444.3 287.987 1455.74 310.719 1456.47 332.282C1458.61 396.517 1426.37 432.801 1398.82 486.683C1381.98 519.674 1368.28 554.399 1361.12 590.777Z" fill="#931B29"/>
<path d="M1186.15 1200.15C1242.67 1161.5 1287.04 1100.38 1291.25 1031.52C1294.94 970.631 1200.22 802.466 1147.99 907.124C1141.85 919.429 1136.61 932.781 1137.36 946.618C1138.11 960.459 1146.25 974.821 1159.43 979.104C1171.32 982.963 1185.42 977.124 1190.92 966.054C1196.45 955 1192.7 940.037 1182.58 932.643C1178.26 935.354 1173.94 938.065 1169.62 940.776C1173.73 927.783 1192.85 924.366 1203.52 933.079C1214.2 941.788 1216.21 958.212 1210.86 970.73C1205.51 983.249 1194.33 992.321 1182.4 998.824C1176.65 1001.97 1170.36 1004.68 1163.74 1004.65C1156.61 1004.61 1149.78 1001.35 1143.89 997.251C1104.61 970.044 1100.81 921.421 1116.18 879.959C1135.9 826.555 1183.5 844.279 1227.48 821.594C1255.3 807.247 1270.09 776.749 1283.1 748.229C1286.72 740.245 1290.41 732.141 1291.63 723.422C1295.33 697.814 1277.91 674.068 1261.18 654.015C1246.9 636.878 1228.43 618.29 1206.47 620.885C1174.46 624.687 1161.94 670.241 1130.27 676.178C1117.23 678.608 1103.63 673.411 1092.85 665.449C1073.87 651.409 1061.6 627.364 1064.69 604.138C1067.77 580.912 1087.82 560.441 1111.29 559.852C1123.69 559.53 1137.04 565.374 1142.59 576.62C1148.11 587.855 1142.59 603.92 1130.49 606.571C1118.38 609.227 1105.96 593.034 1113.48 583.242C1097.44 588.375 1098.41 614.467 1112.47 624.081C1126.53 633.696 1145.69 630.334 1160.76 622.934C1242.96 582.616 1248.65 497.255 1189.49 434.953C1169.27 413.653 1144.46 393.984 1115.41 391.046C1063.55 385.802 984.423 441.9 967.188 489.147C956.377 518.803 958.901 553.251 973.956 581.412C958.823 565.745 933.515 563.629 913.546 571.598C893.578 579.562 878.197 595.794 865.343 612.978C856.155 625.251 847.905 638.442 843.185 653.075C833.911 681.692 839.658 714.949 858.071 739.21C871.289 756.646 889.553 767.47 910.044 773.858C913.176 774.835 951.264 785.349 951.118 785.368C877.656 800.238 811.266 803.744 775.702 881.178C748.049 941.457 754.009 1020.29 798.324 1072.39C830.925 1110.7 886.211 1130.7 933.266 1114.88C963.437 1104.72 1016.25 1070.43 1024.9 1036.39C1041.13 972.108 931.193 936.377 940.337 1003.43C942.014 1015.5 955.95 1025.97 966.583 1020.3C954.766 1035.29 939.159 1051.85 920.101 1048.83C903.934 1046.26 892.779 1029.03 892.776 1012.67C892.771 996.307 901.504 981.246 912.257 969.099C923.995 955.871 938.896 944.775 956.281 941.169C1012.91 929.39 1070.26 1009.32 1069.29 1059.84C1068.65 1092.87 1048.27 1121.18 1024.51 1142.7C979.211 1183.78 917.096 1214.04 899.328 1272.82C888.505 1308.52 898.28 1350.03 923.943 1377.7C914.631 1357.88 922.396 1333.65 936.985 1317.75C980.472 1270.43 1028.9 1267.13 1086.3 1247.99C1121.44 1236.26 1155.54 1221.08 1186.15 1200.15Z" fill="#931B29"/>
</g>
<defs>
<clipPath id="clip0_14_536">
<rect width="1920" height="1080" fill="white"/>
</clipPath>
</defs>
</svg>
