<svg width="3424" height="3424" viewBox="0 0 3424 3424" fill="none" xmlns="http://www.w3.org/2000/svg">
<circle cx="1712" cy="1712" r="1712" fill="black"/>
<circle cx="1712" cy="1470" r="1470" fill="#F52420"/>
<path d="M2092.85 2175.25L1671.49 1563.05L1611.49 1475.91L1122.55 765.52H1332.87L1728.28 1340.03L1788.28 1427.17L2303.17 2175.25H2092.85ZM2390.12 2115.45L1859.41 1344.44L1799.41 1257.24L1419.78 705.707L1388.31 660H921.822L1035.59 825.32L1540.36 1558.73L1600.36 1645.84L2005.93 2235.12L2037.4 2280.77H2503.89L2390.12 2115.45Z" fill="white"/>
<path d="M1611.49 1475.91L1671.49 1563.05L1600.36 1645.84L1054.59 2280.77H920L1540.36 1558.73L1611.49 1475.91Z" fill="white"/>
<path d="M2447.73 660L1859.41 1344.44L1788.28 1427.17L1728.28 1340.03L1799.41 1257.24L2197.93 793.387L2313.15 660H2447.73Z" fill="white"/>
</svg>
