<svg width="3424" height="3424" viewBox="0 0 3424 3424" fill="none" xmlns="http://www.w3.org/2000/svg">
<circle cx="1712" cy="1712" r="1712" fill="black"/>
<circle cx="1712" cy="1470" r="1470" fill="#F52420"/>
<path d="M2528.57 786.133C2522.31 767.695 2514.84 762.843 2503.18 758.233C2477.67 748.772 2434.45 763.086 2434.45 763.086C2434.45 763.086 904.638 1313.32 817.241 1374.21C798.422 1387.32 792.118 1395.08 788.989 1404.06C773.882 1447.24 820.951 1466.41 820.951 1466.41L1215.26 1594.99C1215.26 1594.99 1229.95 1597.17 1235.19 1593.77C1324.89 1537 2137.68 1023.65 2184.56 1006.42C2191.95 1004.24 2197.43 1006.66 2195.98 1011.76C2177.21 1077.75 1471.26 1705.37 1471.26 1705.37C1471.26 1705.37 1468.57 1708.77 1466.88 1712.65L1465.95 1712.17L1429.17 2103.49C1429.17 2103.49 1413.74 2223.34 1533.56 2103.49C1618.1 2018.82 1699.89 1947.98 1740.83 1913.77C1876.41 2007.42 2022.32 2111.01 2085.3 2165.12C2116.92 2192.29 2143.38 2196.66 2165.16 2195.93C2224.93 2193.74 2241.62 2128 2241.62 2128C2241.62 2128 2520.39 1005.45 2529.71 855.034C2530.63 840.235 2531.89 831.016 2531.99 820.826C2532.16 806.755 2530.85 792.684 2528.57 786.133Z" fill="white"/>
</svg>
